# xmcd
#
# Track frame offsets:
#	150
#	11995
#	25047
#	38140
#	50337
#	64170
#	78597
#	94710
#	119885
#	133110
#	145790
#	157637
#	171502
#	185030
#	198160
#	210635
#	224557
#	237955
#	252002
#	266137
#	277407
#	290207
#	301960
#	317280
#	330622
#
# Disc length: 4586
#
# Revision: 1
# Processed by: cddbd v1.5.1PL0 Copyright (c) Steve Scherf et al.
# Submitted via: ExactAudioCopy v0.95a3
# Normalized: r0:TDELIM( - )
#
DISCID=8111e819
DTITLE=Various Artist - Royal Memphis Soul #3
DYEAR=1996
DGENRE=Soul
TTITLE0=Syl Johnson - Back For A Taste Of Your Love
TTITLE1=Otis Clay - If I Could Reach Out
TTITLE2=Erma Coffee - You Made Me What I Am
TTITLE3=Otis Clay - I Die A Little Each Day
TTITLE4=Erma Coffee - Anyway The Wind Blows
TTITLE5=Al Green - Livin' For You
TTITLE6=Phillip Mitchell - Turning Over The Ground
TTITLE7=Al Green - Let's Get Married
TTITLE8=Quiet Elegance - Will You Be My Man In The Morning?
TTITLE9=The Masquerades - Wake Up Fool
TTITLE10=Syl Johnson - Please Don't Give Up On Me
TTITLE11=Otis Clay - It Was Jealousy
TTITLE12=Al Green - Sha-La-La (Make Me Happy)
TTITLE13=Veniece - Every Now And Then
TTITLE14=Known Facts - He's Got It
TTITLE15=Al Green - L-O-V-E (Love)
TTITLE16=Known Facts - How Can I Believe In You
TTITLE17=Ann Peebles - Beware
TTITLE18=Syl Johnson - Take Me To The River
TTITLE19=Willie Clayton - I Must Be Losing You
TTITLE20=Gene Anderson - You Love Must Be Voodoo (Part 1)
TTITLE21=Willie Clayton - It's Time You Made Up Your Mind
TTITLE22=Jimmy Mack - Be Good To The One (That's Good To You)
TTITLE23=Ann Peebles - Come To Mama
TTITLE24=Willie Walker - I Love Her
EXTD=
EXTT0=
EXTT1=
EXTT2=
EXTT3=
EXTT4=
EXTT5=
EXTT6=
EXTT7=
EXTT8=
EXTT9=
EXTT10=
EXTT11=
EXTT12=
EXTT13=
EXTT14=
EXTT15=
EXTT16=
EXTT17=
EXTT18=
EXTT19=
EXTT20=
EXTT21=
EXTT22=
EXTT23=
EXTT24=
PLAYORDER=
